<mxfile host="app.diagrams.net" modified="2023-08-16T12:59:48.915Z" agent="Mozilla/5.0 (Macintosh; Intel Mac OS X 10_15_7) AppleWebKit/537.36 (KHTML, like Gecko) Chrome/115.0.0.0 Safari/537.36 Edg/115.0.1901.203" version="21.6.6" etag="kLbEJD052uhNy4ksEH2r" type="github">
  <diagram name="Page-1" id="3WmewH49MC0YbbfD4fiM">
    <mxGraphModel>
      <root>
        <mxCell id="0" />
        <mxCell id="1" parent="0" />
      </root>
    </mxGraphModel>
  </diagram>
</mxfile>
